<?xml version="1.0" encoding="utf-8"?>
<!-- Generator: Adobe Illustrator 27.3.1, SVG Export Plug-In . SVG Version: 6.00 Build 0)  -->
<svg version="1.1" id="Layer_1" xmlns="http://www.w3.org/2000/svg" xmlns:xlink="http://www.w3.org/1999/xlink" x="0px" y="0px"
	 viewBox="0 0 28.3 28.3" style="enable-background:new 0 0 28.3 28.3;" xml:space="preserve">
<style type="text/css">
	.st0{fill:none;stroke:#C92071;stroke-width:1.5;stroke-linecap:round;stroke-linejoin:round;}
</style>
<g>
	<path class="st0" d="M15.7,12.7h2.8"/>
	<g>
		<path class="st0" d="M9.1,21.5c0.4,0,0.8,0.3,0.8,0.8c0,0.4-0.3,0.8-0.8,0.8s-0.8-0.3-0.8-0.8C8.4,21.8,8.7,21.5,9.1,21.5z"/>
	</g>
	<g>
		<path class="st0" d="M20.1,21.5c0.4,0,0.8,0.3,0.8,0.8c0,0.4-0.3,0.8-0.8,0.8c-0.4,0-0.8-0.3-0.8-0.8
			C19.3,21.8,19.7,21.5,20.1,21.5z"/>
	</g>
	<g>
		<path class="st0" d="M4.6,5.4l2,0.4l0.9,11.2c0.1,0.9,0.8,1.6,1.8,1.6H20c0.9,0,1.6-0.6,1.7-1.5l0.9-6.4c0.1-0.8-0.5-1.5-1.3-1.5
			H7"/>
	</g>
</g>
</svg>
