<?xml version="1.0" encoding="utf-8"?>
<!-- Generator: Adobe Illustrator 27.5.0, SVG Export Plug-In . SVG Version: 6.00 Build 0)  -->
<svg version="1.1" id="Layer_1" xmlns="http://www.w3.org/2000/svg" xmlns:xlink="http://www.w3.org/1999/xlink" x="0px" y="0px"
	 width="70px" height="70px" viewBox="0 0 64 64" style="enable-background:new 0 0 64 64;" xml:space="preserve">
<g>
	<g transform="translate(0.000000,511.000000) scale(0.100000,-0.100000)">
		<path style="fill:#8F8F8F;" d="M253.6,5021.4C88.1,5009,3.7,4906.8,31.4,4733.9c8.9-69.7,6-58.6,75.7-58.9
			c125.2-144,225.9-130.7,368.6-11.5c31.5-30,59.6-64.6,93.7-68.1c48.9,1.2,62.1,85.2,33.5,117.1c-7.6,7.8-97.5,73.3-121.6,91.1
			C436.2,4967,440.2,5027.1,253.6,5021.4z M325.2,4992.4c110.1-11.7,97.2-91.9,128.9-183.9c-93.5-9.9-217.3-45.6-307.3-81.8
			C92.1,4894.2,138.1,5023.3,325.2,4992.4z M124.4,4952.1c-39.1-68.3-21.7-162.2-0.2-238c-0.3-1.8-13.7-10.4-17.2-12.9
			c-11.2,0-33.7,0-44.9,0C39.5,4798.5,52.4,4919.2,124.4,4952.1z M503.5,4755.1c19.8-14.6,36.7-27.2,37.6-28
			c-26.3-12.1-50.4-19-103.7-59.7c-115.7-95.2-199.7-99.1-304.8,18.9c82.6,48.9,262.8,93.5,335.2,95.2L503.5,4755.1z M579,4699.2
			c24.7-10.6,14.1-81.7-11.8-77.4c-7,1.7-21.4,11.2-36.3,24.4c-10.1,8.7-32.4,30.4-32.4,31.4C510.1,4687.8,565.3,4709,579,4699.2z"
			/>
	</g>
</g>
</svg>
