<?xml version="1.0" encoding="utf-8"?>
<!-- Generator: Adobe Illustrator 27.5.0, SVG Export Plug-In . SVG Version: 6.00 Build 0)  -->
<svg version="1.1" id="Layer_1" xmlns="http://www.w3.org/2000/svg" xmlns:xlink="http://www.w3.org/1999/xlink" x="0px" y="0px"
	 width="64px" height="64px" viewBox="0 0 64 64" style="enable-background:new 0 0 64 64;" xml:space="preserve">
<style type="text/css">
	.st0{fill:#8F8F8F;}
</style>
<path class="st0" d="M16.9,2.6C13.1,4,9.6,5.4,9.2,5.6c-1,0.5-2.1,1.7-2.7,2.8C6,9.6,0,27.7,0,28.3c0,1.1,0.9,2.5,1.9,2.7
	c0.3,0.1,2.8,0.3,5.8,0.5l5.3,0.4v14.2c0,12.4,0,14.2,0.2,14.5c0.4,0.5,5.4,2,9.1,2.6c3.6,0.6,5.5,0.8,9.8,0.8s6.3-0.2,9.8-0.8
	c3.6-0.6,8.6-2,8.9-2.6c0.2-0.2,0.2-2,0.2-14.5V31.9l5.3-0.4c2.9-0.2,5.5-0.5,5.8-0.5c1-0.3,1.9-1.6,1.9-2.8c0-0.2-1.4-4.7-3.2-10
	c-2.3-7-3.3-9.8-3.7-10.4c-0.6-0.9-1.6-1.9-2.5-2.4C54.2,5.3,50.8,4,47,2.6L40.2,0H32h-8.2L16.9,2.6z M38.9,2.3
	c0,0.4-0.5,1.8-0.9,2.4c-0.8,1.4-2.7,2.7-4.3,3.1c-2.3,0.5-4.8-0.2-6.5-1.8c-0.8-0.8-1.3-1.6-1.7-2.7C24.9,1.9,24.1,2,32,2
	C38.7,2,38.9,2,38.9,2.3z M23.3,3.3c0.1,0.5,0.4,1.3,0.7,1.9c0.4,0.8,0.8,1.3,1.6,2.1c1.2,1.2,2.2,1.8,3.7,2.3
	c0.9,0.3,1.2,0.3,2.7,0.3s1.8,0,2.7-0.3c1.5-0.5,2.5-1.1,3.7-2.3C39.2,6.4,39.5,6,40,5.1c0.3-0.6,0.6-1.4,0.7-1.9l0.2-0.8l0.9,0.3
	c0.5,0.2,0.9,0.4,0.9,0.5c0.1,0.4-0.7,2.3-1.3,3.4c-2.8,4.7-8.8,6.6-13.7,4.5c-2.8-1.2-5.1-3.7-6.1-6.5c-0.2-0.6-0.4-1.2-0.3-1.3
	c0-0.1,0.4-0.3,0.9-0.5c0.5-0.2,0.9-0.3,0.9-0.3C23.1,2.4,23.2,2.8,23.3,3.3z M19.6,4.9c1.2,4,4.3,7.1,8.3,8.5
	c1.7,0.6,3,0.8,4.8,0.7c2.4-0.1,4.5-0.8,6.5-2.1c2.5-1.6,4.4-4.2,5.2-7c0.2-0.5,0.3-1,0.3-1c0.1-0.1,8.9,3.3,9.3,3.5
	c0.6,0.3,1.3,1.2,1.6,1.8c0.1,0.3,1.6,4.7,3.3,9.8c2.2,6.4,3.1,9.4,3,9.6c0,0.2-0.2,0.4-0.3,0.4c-0.2,0.1-9.2,0.9-10.3,0.9H51v-3.6
	v-3.6l-0.3-0.3c-0.4-0.4-1-0.4-1.4,0L49,22.6V41v18.4l-1.3,0.4c-3.1,1-6.2,1.6-9.9,2c-2.7,0.3-9,0.3-11.7,0c-3.6-0.4-6.5-1-9.6-1.9
	L15,59.3V41V22.6l-0.3-0.3c-0.3-0.3-0.4-0.3-0.8-0.2C13,22.2,13,22.2,13,26.3v3.6h-0.3c-1.1,0-10.1-0.8-10.3-0.9
	c-0.1-0.1-0.3-0.3-0.3-0.4c0-0.2,0.9-3.1,3-9.6c1.7-5.1,3.2-9.5,3.3-9.8c0.3-0.7,1.2-1.6,1.8-1.9c0.5-0.3,8.8-3.4,9-3.4
	C19.3,3.9,19.5,4.3,19.6,4.9z"/>
</svg>
