<?xml version="1.0" encoding="UTF-8"?>
<svg id="Layer_1" data-name="Layer 1" xmlns="http://www.w3.org/2000/svg" viewBox="0 0 20.11 20.11">
  <defs>
    <style>
      .cls-1 {
        fill: #fff;
      }
    </style>
  </defs>
  <path class="cls-1" d="m15.38,3.59c-.31,0-.61.12-.83.35-.22.22-.35.52-.35.83,0,.15.03.31.09.45.06.14.15.27.26.38.11.11.24.2.38.26.14.06.3.09.45.09.31,0,.61-.12.83-.35.22-.22.35-.52.35-.83,0-.15-.03-.31-.09-.45-.06-.14-.15-.27-.26-.38-.11-.11-.24-.2-.38-.26-.14-.06-.3-.09-.45-.09Z"/>
  <path class="cls-1" d="m10.14,5.1c-1.31,0-2.57.52-3.5,1.45-.93.93-1.45,2.19-1.45,3.5,0,1.31.52,2.57,1.45,3.5.93.93,2.19,1.45,3.5,1.45,1.31,0,2.57-.52,3.5-1.45s1.45-2.19,1.45-3.5c0-1.31-.52-2.57-1.45-3.5-.93-.93-2.19-1.45-3.5-1.45Zm0,8.12c-.84,0-1.65-.34-2.24-.93-.59-.59-.93-1.4-.93-2.24,0-.84.34-1.65.93-2.24.59-.59,1.4-.93,2.24-.93.84,0,1.65.34,2.24.93.59.59.93,1.4.93,2.24,0,.84-.33,1.65-.93,2.24s-1.4.93-2.24.93Z"/>
  <path class="cls-1" d="m14.07,20.11H6.04c-1.6,0-3.14-.64-4.27-1.77C.64,17.2,0,15.67,0,14.07V6.04c0-1.6.64-3.14,1.77-4.27C2.9.64,4.44,0,6.04,0h8.03c1.6,0,3.14.64,4.27,1.77,1.13,1.13,1.77,2.67,1.77,4.27v8.03c0,1.6-.64,3.14-1.77,4.27-1.13,1.13-2.67,1.77-4.27,1.77ZM6.04,1.89c-1.1,0-2.15.44-2.93,1.22-.78.78-1.21,1.83-1.22,2.93v8.03c0,1.1.44,2.16,1.21,2.93.78.78,1.83,1.22,2.93,1.22h8.03c1.1,0,2.15-.44,2.93-1.22.78-.78,1.22-1.83,1.22-2.93V6.04c0-1.1-.44-2.15-1.22-2.93s-1.83-1.21-2.93-1.22H6.04Z"/>
</svg>